HIERARCHY
ROOT RootJoint
{
    OFFSET   0.000000   0.000000   0.000000
    CHANNELS 6 Xposition Yposition Zposition Xrotation Yrotation Zrotation
    JOINT pelvis_lowerback
    {
        OFFSET   0.000000   0.093605   0.000000
        CHANNELS 3 Xrotation Yrotation Zrotation
        JOINT lowerback_torso
        {
            OFFSET   0.000000   0.100000   0.000000
            CHANNELS 3 Xrotation Yrotation Zrotation
            JOINT torso_head
            {
                OFFSET   0.000000   0.282350   0.000000
                CHANNELS 3 Xrotation Yrotation Zrotation
                End Site
                {
                    OFFSET   0.000000   0.192650   0.000000
                }
            }
            JOINT rTorso_Clavicle
            {
                OFFSET  -0.001000   0.157500   0.000000
                CHANNELS 3 Xrotation Yrotation Zrotation
                JOINT rShoulder
                {
                    OFFSET  -0.117647   0.000000   0.000000
                    CHANNELS 3 Xrotation Yrotation Zrotation
                    JOINT rElbow
                    {
                        OFFSET  -0.245000   0.000000   0.000000
                        CHANNELS 3 Xrotation Yrotation Zrotation
                        JOINT rWrist
                        {
                            OFFSET  -0.240000   0.000000   0.000000
                            CHANNELS 3 Xrotation Yrotation Zrotation
                            End Site
                            {
                                OFFSET  -0.116353  -0.002500   0.000000
                            }
                        }
                    }
                }
            }
            JOINT lTorso_Clavicle
            {
                OFFSET   0.001000   0.157500   0.000000
                CHANNELS 3 Xrotation Yrotation Zrotation
                JOINT lShoulder
                {
                    OFFSET   0.117647   0.000000   0.000000
                    CHANNELS 3 Xrotation Yrotation Zrotation
                    JOINT lElbow
                    {
                        OFFSET   0.245000   0.000000   0.000000
                        CHANNELS 3 Xrotation Yrotation Zrotation
                        JOINT lWrist
                        {
                            OFFSET   0.240000   0.000000   0.000000
                            CHANNELS 3 Xrotation Yrotation Zrotation
                            End Site
                            {
                                OFFSET   0.116353  -0.002500   0.000000
                            }
                        }
                    }
                }
            }
        }
    }
    JOINT rHip
    {
        OFFSET  -0.100000  -0.051395   0.000000
        CHANNELS 3 Xrotation Yrotation Zrotation
        JOINT rKnee
        {
            OFFSET   0.000000  -0.410000   0.000000
            CHANNELS 3 Xrotation Yrotation Zrotation
            JOINT rAnkle
            {
                OFFSET   0.000000  -0.390000   0.000000
                CHANNELS 3 Xrotation Yrotation Zrotation
                JOINT rToeJoint
                {
                    OFFSET   0.000000  -0.050000   0.130000
                    CHANNELS 3 Xrotation Yrotation Zrotation
                    End Site
                    {
                        OFFSET  -0.010000   0.002000   0.060000
                    }
                }
            }
        }
    }
    JOINT lHip
    {
        OFFSET   0.100000  -0.051395   0.000000
        CHANNELS 3 Xrotation Yrotation Zrotation
        JOINT lKnee
        {
            OFFSET   0.000000  -0.410000   0.000000
            CHANNELS 3 Xrotation Yrotation Zrotation
            JOINT lAnkle
            {
                OFFSET   0.000000  -0.390000   0.000000
                CHANNELS 3 Xrotation Yrotation Zrotation
                JOINT lToeJoint
                {
                    OFFSET   0.000000  -0.050000   0.130000
                    CHANNELS 3 Xrotation Yrotation Zrotation
                    End Site
                    {
                        OFFSET   0.010000   0.002000   0.060000
                    }
                }
            }
        }
    }
}
MOTION
Frames: 12
Frame Time:   0.008333
 -2.460693   0.899703   3.947043  -2.274926 -25.146968   0.478834  27.588551  -2.238964   2.077090  -0.557572  -3.057442  -0.212322  -1.946203  -0.619698  -3.589725  -3.413149  17.164081   2.207168 -13.332973  14.916928  48.561834  -0.003221  32.533550   0.003946  -6.133987   3.157842  -6.685409  -6.495730 -22.204145  -4.357880 -19.665891 -14.279040 -49.948471  -0.003686 -30.745813  -0.001869  -8.228668  -4.692022  18.516910 -17.442953 -12.139005  -8.787317  25.691196  -0.000858  -0.000443  -6.683759  -7.674870  -0.677992  -0.005369   0.000001  -0.000000  -5.434170  15.544042  10.361616  21.335321   0.000887   0.003351 -10.241320  11.505171   0.144621  -2.899852   0.001065   0.002528
 -2.460846   0.900270   3.948291  -2.269466 -25.243079   0.506606  27.200574  -2.204002   2.015121  -0.531373  -3.061377  -0.239968  -1.852626  -0.639092  -3.521246  -3.340315  16.910461   2.259551 -13.135165  14.842887  48.606375  -0.003106  32.772465   0.003888  -6.131842   3.203005  -6.680535  -6.431338 -22.006120  -4.369752 -19.554463 -14.317190 -49.971890  -0.003486 -31.001128  -0.001835  -8.219753  -4.706865  18.566266 -17.227618 -12.044523  -8.778224  25.398351  -0.000810  -0.000378  -6.596357  -7.687881  -0.629641  -0.005368   0.000001  -0.000000  -5.194259  15.352738  10.259246  21.139199   0.000866   0.003217 -10.027397  11.489989   0.158942  -3.232295   0.001057   0.003027
 -2.460941   0.900802   3.949527  -2.270828 -25.354658   0.529450  26.831172  -2.166791   1.946834  -0.504076  -3.061674  -0.272616  -1.763395  -0.656857  -3.457293  -3.264475  16.665377   2.311152 -12.943909  14.768212  48.650939  -0.002968  32.992571   0.003773  -6.133323   3.235449  -6.681220  -6.365012 -21.811084  -4.380645 -19.444758 -14.347338 -49.991966  -0.003254 -31.237760  -0.001781  -8.213076  -4.719559  18.622662 -17.017096 -11.945760  -8.770399  25.116620  -0.000764  -0.000294  -6.510265  -7.688603  -0.584657  -0.004466   0.000001  -0.000000  -4.964850  15.163765  10.163006  20.977501   0.000823   0.003030  -9.825084  11.469233   0.169149  -3.587954   0.001042   0.003545
 -2.460975   0.901298   3.950742  -2.275764 -25.469388   0.548267  26.481584  -2.132751   1.877700  -0.478413  -3.062287  -0.306800  -1.680577  -0.673321  -3.398297  -3.188557  16.431095   2.360111 -12.760785  14.695005  48.693146  -0.002819  33.195937   0.003617  -6.136144   3.255174  -6.682135  -6.298755 -21.623564  -4.390336 -19.338296 -14.371990 -50.009570  -0.003000 -31.456854  -0.001700  -8.209260  -4.724376  18.681214 -16.814271 -11.848326  -8.765534  24.847324  -0.000725  -0.000213  -6.426819  -7.683470  -0.543500  -0.002370   0.000001  -0.000000  -4.747376  14.985966  10.070993  20.837675   0.000763   0.002808  -9.639696  11.448608   0.177764  -3.939586   0.000999   0.003915
 -2.460947   0.901758   3.951928  -2.282380 -25.581864   0.563811  26.151754  -2.102891   1.809449  -0.455001  -3.064593  -0.341161  -1.603790  -0.688646  -3.343616  -3.114404  16.208403   2.406081 -12.586771  14.624176  48.732509  -0.002662  33.384261   0.003430  -6.139846   3.265542  -6.683868  -6.234419 -21.445654  -4.399420 -19.236538 -14.393042 -50.025451  -0.002736 -31.660182  -0.001602  -8.207632  -4.722966  18.739099 -16.620612 -11.754267  -8.764009  24.590588  -0.000691  -0.000144  -6.346237  -7.675807  -0.505967   0.000902   0.000001  -0.000000  -4.542202  14.819872   9.982395  20.713646   0.000693   0.002571  -9.472394  11.428816   0.185099  -4.276399   0.000925   0.004115
 -2.460861   0.902184   3.953080  -2.289626 -25.689737   0.576660  25.841311  -2.077078   1.742530  -0.433828  -3.068800  -0.375298  -1.532484  -0.702923  -3.292827  -3.043042  15.997704   2.449220 -12.422283  14.556327  48.769132  -0.002501  33.558983   0.003223  -6.144107   3.269425  -6.686828  -6.173071 -21.278229  -4.408308 -19.140272 -14.411707 -50.040125  -0.002473 -31.849283  -0.001493  -8.207362  -4.717799  18.794932 -16.436722 -11.664418  -8.765786  24.346046  -0.000662  -0.000087  -6.268404  -7.667182  -0.471809   0.005253   0.000002  -0.000000  -4.349243  14.664913   9.896795  20.602086   0.000621   0.002333  -9.322842  11.409849   0.191191  -4.593827   0.000830   0.004168
 -2.460721   0.902578   3.954195  -2.296885 -25.791937   0.587250  25.549678  -2.054869   1.676940  -0.414668  -3.074688  -0.409153  -1.466168  -0.716227  -3.245640  -2.975014  15.799112   2.489853 -12.267381  14.491833  48.803325  -0.002338  33.721326   0.003003  -6.148690   3.268902  -6.690857  -6.115201 -21.121470  -4.417251 -19.049782 -14.428719 -50.053940  -0.002216 -32.025413  -0.001382  -8.207854  -4.710674  18.847998 -16.262704 -11.579131  -8.770682  24.113146  -0.000635  -0.000042  -6.193075  -7.658395  -0.440428   0.279190   0.000054  -0.000001  -4.168209  14.520346   9.813969  20.500935   0.000549   0.002103  -9.190159  11.391616   0.196072  -4.890015   0.000724   0.004103
 -2.460529   0.902951   3.955317  -2.299918 -25.911850   0.596127  25.241276  -2.023425   1.598818  -0.372656  -3.088738  -0.451650  -1.377374  -0.724614  -3.172242  -2.940826  15.611195   2.540835 -12.146706  14.402570  48.874551  -0.002002  33.779115   0.002585  -6.170633   3.309223  -6.706894  -6.070202 -20.947198  -4.439438 -18.991583 -14.432097 -50.067517  -0.001966 -32.155090  -0.001311  -8.220945  -4.715950  18.895781 -16.097684 -11.485917  -8.774213  23.882015  -0.000615   0.000014  -6.112225  -7.639417  -0.398698   0.228803   0.000037  -0.000000  -3.968869  14.238271   9.730062  20.420836   0.000519   0.001972  -9.124930  11.319633   0.214082  -5.007460   0.000617   0.003801
 -2.460269   0.903293   3.956432  -2.301550 -26.038989   0.602567  24.945379  -1.993136   1.515816  -0.333822  -3.101340  -0.496517  -1.292959  -0.732477  -3.102950  -2.904347  15.431131   2.590039 -12.029911  14.315126  48.942463  -0.001715  33.828579   0.002219  -6.196897   3.319806  -6.733937  -6.026300 -20.778052  -4.458755 -18.935035 -14.431667 -50.077247  -0.001737 -32.274307  -0.001233  -8.238294  -4.711763  18.955253 -15.943541 -11.391069  -8.779419  23.660776  -0.000598   0.000071  -6.032427  -7.613633  -0.359904   0.190317   0.000023  -0.000000  -3.776213  13.965277   9.672926  20.353701   0.000493   0.001815  -9.055808  11.258020   0.235844  -5.115045   0.000553   0.003502
 -2.459912   0.903603   3.957540  -2.301217 -26.171327   0.607812  24.665053  -1.965174   1.433018  -0.299661  -3.113578  -0.543279  -1.214659  -0.739675  -3.039249  -2.867739  15.259535   2.634879 -11.918263  14.231251  49.004933  -0.001475  33.873248   0.001909  -6.223438   3.318321  -6.763085  -5.983849 -20.617042  -4.475846 -18.880611 -14.429393 -50.084828  -0.001524 -32.384689  -0.001144  -8.256797  -4.702939  19.018597 -15.801548 -11.294490  -8.789126  23.448701  -0.000585   0.000124  -5.952454  -7.582279  -0.324499   0.162088   0.000012  -0.000000  -3.590378  13.698762   9.617307  20.293578   0.000462   0.001663  -8.995380  11.181918   0.249148  -5.254833   0.000504   0.003415
 -2.459420   0.903833   3.958670  -2.302838 -26.325456   0.588279  24.399901  -1.932451   1.368221  -0.268684  -3.120836  -0.585318  -1.141041  -0.745854  -2.980404  -2.834382  15.098411   2.671093 -11.813968  14.152644  49.059762  -0.001280  33.914630   0.001654  -6.249065   3.312819  -6.791118  -5.941774 -20.463612  -4.491148 -18.827758 -14.425416 -50.092313  -0.001322 -32.487007  -0.001032  -8.276536  -4.689688  19.084369 -15.669390 -11.192038  -8.781642  23.252728  -0.000573   0.000185  -5.873568  -7.537952  -0.290239   0.142094   0.000004   0.000000  -3.408617  13.427292   9.540278  20.239659   0.000413   0.001539  -8.882568  11.068790   0.245991  -4.784534   0.000405   0.000396
 -2.458900   0.904036   3.959784  -2.307798 -26.440012   0.577285  24.150751  -1.920114   1.293409  -0.240089  -3.140253  -0.623929  -1.072848  -0.752558  -2.923618  -2.798744  14.942389   2.710096 -11.712901  14.075886  49.113089  -0.001111  33.951839   0.001429  -6.274701   3.302690  -6.824947  -5.903867 -20.322258  -4.505409 -18.779141 -14.422584 -50.097758  -0.001146 -32.582330  -0.000940  -8.294908  -4.676681  19.142441 -15.540206 -11.096467  -8.790853  23.065425  -0.000570   0.000185  -5.756642  -7.497057  -0.264841  -0.122114  -0.000111  -0.000057  -3.239283  13.204506   9.486503  20.203639   0.000359   0.001341  -8.864259  11.022174   0.264901  -5.267974   0.000486   0.002050
